<svg width="20" height="15" viewBox="0 0 20 15" fill="none" xmlns="http://www.w3.org/2000/svg">
<mask id="path-1-inside-1_77_1789" fill="white">
<path fill-rule="evenodd" clip-rule="evenodd" d="M18.7696 1.97427C19.0211 2.25417 19.2101 2.5886 19.3107 2.95207C19.6923 4.45634 19.6923 7.6153 19.6923 7.6153C19.6923 7.6153 19.6923 10.7743 19.3107 12.2786C19.0817 13.1059 18.3948 13.7828 17.5552 14.0085C16.0286 14.3845 9.84616 14.3845 9.84616 14.3845C9.84616 14.3845 3.66369 14.3845 2.13715 14.0085C1.29756 13.7828 0.610614 13.1059 0.381634 12.2786C0 10.7743 0 7.6153 0 7.6153C0 7.6153 0 4.45634 0.381634 2.95207C0.482227 2.5886 0.671203 2.25417 0.922678 1.97427C1.24364 1.61704 1.6664 1.34865 2.13715 1.22214C3.66369 0.846069 9.84616 0.846069 9.84616 0.846069C9.84616 0.846069 16.0286 0.846069 17.5552 1.22214C18.0259 1.34865 18.4487 1.61704 18.7696 1.97427ZM16.2242 3.61519C14.9609 3.3075 9.84458 3.3075 9.84458 3.3075C9.84458 3.3075 4.72828 3.3075 3.465 3.61519C3.07543 3.7187 2.72557 3.93829 2.45996 4.23057L9.84458 8.23057L17.2292 4.23057C16.9636 3.93829 16.6137 3.7187 16.2242 3.61519Z"/>
</mask>
<path fill-rule="evenodd" clip-rule="evenodd" d="M18.7696 1.97427C19.0211 2.25417 19.2101 2.5886 19.3107 2.95207C19.6923 4.45634 19.6923 7.6153 19.6923 7.6153C19.6923 7.6153 19.6923 10.7743 19.3107 12.2786C19.0817 13.1059 18.3948 13.7828 17.5552 14.0085C16.0286 14.3845 9.84616 14.3845 9.84616 14.3845C9.84616 14.3845 3.66369 14.3845 2.13715 14.0085C1.29756 13.7828 0.610614 13.1059 0.381634 12.2786C0 10.7743 0 7.6153 0 7.6153C0 7.6153 0 4.45634 0.381634 2.95207C0.482227 2.5886 0.671203 2.25417 0.922678 1.97427C1.24364 1.61704 1.6664 1.34865 2.13715 1.22214C3.66369 0.846069 9.84616 0.846069 9.84616 0.846069C9.84616 0.846069 16.0286 0.846069 17.5552 1.22214C18.0259 1.34865 18.4487 1.61704 18.7696 1.97427ZM16.2242 3.61519C14.9609 3.3075 9.84458 3.3075 9.84458 3.3075C9.84458 3.3075 4.72828 3.3075 3.465 3.61519C3.07543 3.7187 2.72557 3.93829 2.45996 4.23057L9.84458 8.23057L17.2292 4.23057C16.9636 3.93829 16.6137 3.7187 16.2242 3.61519Z" fill="black"/>
<path d="M19.3107 2.95207L20.28 2.70616L20.2773 2.69571L20.2744 2.68533L19.3107 2.95207ZM18.7696 1.97427L18.0258 2.64261V2.64261L18.7696 1.97427ZM19.3107 12.2786L20.2744 12.5453L20.2773 12.5349L20.28 12.5245L19.3107 12.2786ZM17.5552 14.0085L17.7944 14.9794L17.8046 14.9769L17.8147 14.9742L17.5552 14.0085ZM2.13715 14.0085L1.87761 14.9742L1.88775 14.9769L1.89795 14.9794L2.13715 14.0085ZM0.381634 12.2786L-0.587659 12.5245L-0.585009 12.5349L-0.582136 12.5453L0.381634 12.2786ZM0.381634 2.95207L-0.582136 2.68533L-0.58501 2.69571L-0.587659 2.70616L0.381634 2.95207ZM0.922678 1.97427L1.66654 2.64261L0.922678 1.97427ZM2.13715 1.22214L1.89795 0.251168L1.88775 0.25368L1.87761 0.256405L2.13715 1.22214ZM17.5552 1.22214L17.8147 0.256405L17.8046 0.25368L17.7944 0.251168L17.5552 1.22214ZM16.2242 3.61519L16.481 2.64872L16.4709 2.64605L16.4608 2.64359L16.2242 3.61519ZM3.465 3.61519L3.22835 2.64359L3.21825 2.64605L3.2082 2.64872L3.465 3.61519ZM2.45996 4.23057L1.71989 3.55804L0.861874 4.50222L1.98368 5.10986L2.45996 4.23057ZM9.84458 8.23057L9.36829 9.10986L9.84458 9.36785L10.3209 9.10986L9.84458 8.23057ZM17.2292 4.23057L17.7055 5.10986L18.8273 4.50222L17.9693 3.55804L17.2292 4.23057ZM20.2744 2.68533C20.1302 2.16408 19.8621 1.69397 19.5135 1.30594L18.0258 2.64261C18.1801 2.81437 18.29 3.01313 18.3469 3.2188L20.2744 2.68533ZM19.6923 7.6153C20.6923 7.6153 20.6923 7.61523 20.6923 7.61514C20.6923 7.6151 20.6923 7.61501 20.6923 7.61492C20.6923 7.61474 20.6923 7.61452 20.6923 7.61425C20.6923 7.61371 20.6923 7.61297 20.6923 7.61205C20.6923 7.6102 20.6923 7.6076 20.6923 7.60426C20.6923 7.59757 20.6923 7.58794 20.6922 7.57549C20.6921 7.5506 20.6919 7.51447 20.6915 7.46828C20.6908 7.37592 20.6892 7.24319 20.6862 7.07956C20.6801 6.75271 20.6679 6.30045 20.6434 5.79905C20.5959 4.82517 20.4983 3.56693 20.28 2.70616L18.3414 3.19798C18.5046 3.84147 18.5979 4.91486 18.6458 5.89652C18.669 6.3729 18.6807 6.80439 18.6865 7.11686C18.6894 7.27288 18.6909 7.3987 18.6916 7.48497C18.692 7.52809 18.6921 7.5613 18.6922 7.58342C18.6923 7.59448 18.6923 7.60276 18.6923 7.60813C18.6923 7.61081 18.6923 7.61276 18.6923 7.61396C18.6923 7.61456 18.6923 7.61497 18.6923 7.6152C18.6923 7.61531 18.6923 7.61537 18.6923 7.61539C18.6923 7.6154 18.6923 7.61538 18.6923 7.61538C18.6923 7.61535 18.6923 7.6153 19.6923 7.6153ZM20.28 12.5245C20.4983 11.6637 20.5959 10.4054 20.6434 9.43156C20.6679 8.93016 20.6801 8.47789 20.6862 8.15105C20.6892 7.98741 20.6908 7.85468 20.6915 7.76232C20.6919 7.71613 20.6921 7.68 20.6922 7.65511C20.6923 7.64266 20.6923 7.63302 20.6923 7.62634C20.6923 7.623 20.6923 7.6204 20.6923 7.61855C20.6923 7.61763 20.6923 7.61689 20.6923 7.61635C20.6923 7.61608 20.6923 7.61586 20.6923 7.61568C20.6923 7.61559 20.6923 7.6155 20.6923 7.61545C20.6923 7.61537 20.6923 7.6153 19.6923 7.6153C18.6923 7.6153 18.6923 7.61525 18.6923 7.61522C18.6923 7.61522 18.6923 7.6152 18.6923 7.61521C18.6923 7.61522 18.6923 7.61529 18.6923 7.6154C18.6923 7.61562 18.6923 7.61604 18.6923 7.61664C18.6923 7.61784 18.6923 7.61979 18.6923 7.62247C18.6923 7.62784 18.6923 7.63612 18.6922 7.64718C18.6921 7.6693 18.692 7.70251 18.6916 7.74563C18.6909 7.8319 18.6894 7.95772 18.6865 8.11374C18.6807 8.42621 18.669 8.85771 18.6458 9.3341C18.5979 10.3158 18.5046 11.3892 18.3414 12.0326L20.28 12.5245ZM17.8147 14.9742C18.9908 14.6581 19.9495 13.7192 20.2744 12.5453L18.3469 12.0118C18.2138 12.4926 17.7987 12.9075 17.2956 13.0427L17.8147 14.9742ZM9.84616 14.3845C9.84616 15.3845 9.84621 15.3845 9.84628 15.3845C9.84634 15.3845 9.84644 15.3845 9.84656 15.3845C9.84678 15.3845 9.84711 15.3845 9.84752 15.3845C9.84835 15.3845 9.84955 15.3845 9.85112 15.3845C9.85426 15.3845 9.85887 15.3845 9.86491 15.3845C9.87699 15.3845 9.89479 15.3845 9.91797 15.3844C9.96433 15.3843 10.0322 15.3842 10.1191 15.3838C10.2927 15.383 10.542 15.3816 10.8458 15.3786C11.453 15.3727 12.2795 15.3609 13.1553 15.3372C14.0295 15.3135 14.9601 15.2778 15.7731 15.2237C16.5594 15.1713 17.3157 15.0974 17.7944 14.9794L17.316 13.0375C17.0314 13.1076 16.4424 13.1747 15.6402 13.2281C14.8646 13.2797 13.9633 13.3145 13.1011 13.3379C12.2404 13.3612 11.426 13.3729 10.8263 13.3787C10.5266 13.3816 10.281 13.3831 10.1105 13.3838C10.0253 13.3842 9.9589 13.3843 9.91395 13.3844C9.89148 13.3845 9.87437 13.3845 9.86296 13.3845C9.85725 13.3845 9.85297 13.3845 9.85016 13.3845C9.84875 13.3845 9.84771 13.3845 9.84704 13.3845C9.84671 13.3845 9.84647 13.3845 9.84632 13.3845C9.84624 13.3845 9.8462 13.3845 9.84617 13.3845C9.84615 13.3845 9.84616 13.3845 9.84616 14.3845ZM1.89795 14.9794C2.37662 15.0974 3.13289 15.1713 3.91926 15.2237C4.73221 15.2778 5.6628 15.3135 6.53704 15.3372C7.41276 15.3609 8.23936 15.3727 8.84656 15.3786C9.15034 15.3816 9.39964 15.383 9.57325 15.3838C9.66006 15.3842 9.72798 15.3843 9.77434 15.3844C9.79752 15.3845 9.81532 15.3845 9.8274 15.3845C9.83344 15.3845 9.83805 15.3845 9.84119 15.3845C9.84276 15.3845 9.84396 15.3845 9.84479 15.3845C9.8452 15.3845 9.84553 15.3845 9.84575 15.3845C9.84587 15.3845 9.84597 15.3845 9.84603 15.3845C9.8461 15.3845 9.84616 15.3845 9.84616 14.3845C9.84616 13.3845 9.84616 13.3845 9.84614 13.3845C9.84611 13.3845 9.84607 13.3845 9.84599 13.3845C9.84584 13.3845 9.8456 13.3845 9.84527 13.3845C9.8446 13.3845 9.84356 13.3845 9.84215 13.3845C9.83934 13.3845 9.83506 13.3845 9.82935 13.3845C9.81794 13.3845 9.80083 13.3845 9.77836 13.3844C9.73341 13.3843 9.66701 13.3842 9.58179 13.3838C9.41133 13.3831 9.1657 13.3816 8.86603 13.3787C8.26631 13.3729 7.45188 13.3612 6.59117 13.3379C5.72897 13.3145 4.82772 13.2797 4.05213 13.2281C3.24994 13.1747 2.66096 13.1076 2.37635 13.0375L1.89795 14.9794ZM-0.582136 12.5453C-0.257234 13.7192 0.701467 14.6581 1.87761 14.9742L2.39669 13.0427C1.89365 12.9075 1.47846 12.4926 1.3454 12.0118L-0.582136 12.5453ZM0 7.6153C-1 7.6153 -1 7.61537 -1 7.61545C-1 7.6155 -1 7.61559 -1 7.61568C-1 7.61586 -1 7.61608 -1 7.61635C-0.999999 7.61689 -0.999999 7.61763 -0.999998 7.61855C-0.999996 7.6204 -0.999993 7.623 -0.999986 7.62634C-0.999974 7.63302 -0.999948 7.64266 -0.999899 7.65511C-0.9998 7.68 -0.999605 7.71613 -0.99922 7.76232C-0.998449 7.85468 -0.996916 7.98741 -0.993863 8.15105C-0.987766 8.47789 -0.97557 8.93016 -0.951108 9.43156C-0.903593 10.4054 -0.806038 11.6637 -0.587659 12.5245L1.35093 12.0326C1.18767 11.3892 1.09441 10.3158 1.04652 9.3341C1.02327 8.85771 1.01162 8.42621 1.00579 8.11374C1.00288 7.95772 1.00143 7.8319 1.00071 7.74563C1.00035 7.70251 1.00017 7.6693 1.00009 7.64718C1.00004 7.63612 1.00002 7.62784 1.00001 7.62247C1 7.61979 1 7.61784 1 7.61664C1 7.61604 1 7.61562 1 7.6154C1 7.61529 1 7.61522 1 7.61521C1 7.6152 1 7.61522 1 7.61522C1 7.61525 1 7.6153 0 7.6153ZM-0.587659 2.70616C-0.806038 3.56693 -0.903593 4.82517 -0.951108 5.79905C-0.97557 6.30045 -0.987766 6.75271 -0.993863 7.07956C-0.996916 7.24319 -0.998449 7.37592 -0.99922 7.46828C-0.999605 7.51447 -0.9998 7.5506 -0.999899 7.57549C-0.999948 7.58794 -0.999974 7.59757 -0.999986 7.60426C-0.999993 7.6076 -0.999996 7.6102 -0.999998 7.61205C-0.999999 7.61297 -0.999999 7.61371 -1 7.61425C-1 7.61452 -1 7.61474 -1 7.61492C-1 7.61501 -1 7.6151 -1 7.61514C-1 7.61523 -1 7.6153 0 7.6153C1 7.6153 1 7.61535 1 7.61538C1 7.61538 1 7.6154 1 7.61539C1 7.61537 1 7.61531 1 7.6152C1 7.61497 1 7.61456 1 7.61396C1 7.61276 1 7.61081 1.00001 7.60813C1.00002 7.60276 1.00004 7.59448 1.00009 7.58342C1.00017 7.5613 1.00035 7.52809 1.00071 7.48497C1.00143 7.3987 1.00288 7.27288 1.00579 7.11686C1.01162 6.80439 1.02327 6.3729 1.04652 5.89652C1.09441 4.91486 1.18767 3.84147 1.35093 3.19798L-0.587659 2.70616ZM0.178814 1.30594C-0.169813 1.69397 -0.437872 2.16408 -0.582136 2.68533L1.3454 3.2188C1.40233 3.01313 1.51222 2.81437 1.66654 2.64261L0.178814 1.30594ZM1.87761 0.256405C1.21115 0.435517 0.622751 0.811834 0.178814 1.30594L1.66654 2.64261C1.86452 2.42225 2.12165 2.26179 2.39669 2.18787L1.87761 0.256405ZM9.84616 0.846069C9.84616 -0.153931 9.8461 -0.153931 9.84603 -0.153931C9.84597 -0.153931 9.84587 -0.153931 9.84575 -0.153931C9.84553 -0.153931 9.8452 -0.153931 9.84479 -0.15393C9.84396 -0.15393 9.84276 -0.15393 9.84119 -0.153929C9.83805 -0.153928 9.83344 -0.153925 9.8274 -0.153919C9.81532 -0.153907 9.79752 -0.153883 9.77434 -0.153837C9.72798 -0.153744 9.66006 -0.153558 9.57325 -0.153187C9.39964 -0.152446 9.15034 -0.150965 8.84656 -0.148007C8.23936 -0.142095 7.41276 -0.130263 6.53704 -0.106556C5.6628 -0.0828885 4.73221 -0.0471959 3.91926 0.00693244C3.13289 0.0592906 2.37662 0.133246 1.89795 0.251168L2.37635 2.19311C2.66096 2.12299 3.24994 2.05593 4.05213 2.00251C4.82772 1.95087 5.72897 1.91605 6.59117 1.89271C7.45188 1.86941 8.26631 1.85774 8.86603 1.8519C9.1657 1.84898 9.41133 1.84752 9.58179 1.84679C9.66701 1.84643 9.73341 1.84625 9.77836 1.84616C9.80083 1.84611 9.81794 1.84609 9.82935 1.84608C9.83506 1.84607 9.83934 1.84607 9.84215 1.84607C9.84356 1.84607 9.8446 1.84607 9.84527 1.84607C9.8456 1.84607 9.84584 1.84607 9.84599 1.84607C9.84607 1.84607 9.84611 1.84607 9.84614 1.84607C9.84616 1.84607 9.84616 1.84607 9.84616 0.846069ZM17.7944 0.251168C17.3157 0.133246 16.5594 0.0592906 15.7731 0.00693244C14.9601 -0.0471959 14.0295 -0.0828885 13.1553 -0.106556C12.2795 -0.130263 11.453 -0.142095 10.8458 -0.148007C10.542 -0.150965 10.2927 -0.152446 10.1191 -0.153187C10.0322 -0.153558 9.96433 -0.153744 9.91797 -0.153837C9.89479 -0.153883 9.87699 -0.153907 9.86491 -0.153919C9.85887 -0.153925 9.85426 -0.153928 9.85112 -0.153929C9.84955 -0.15393 9.84835 -0.15393 9.84752 -0.15393C9.84711 -0.153931 9.84678 -0.153931 9.84656 -0.153931C9.84644 -0.153931 9.84634 -0.153931 9.84628 -0.153931C9.84621 -0.153931 9.84616 -0.153931 9.84616 0.846069C9.84616 1.84607 9.84615 1.84607 9.84617 1.84607C9.8462 1.84607 9.84624 1.84607 9.84632 1.84607C9.84647 1.84607 9.84671 1.84607 9.84704 1.84607C9.84771 1.84607 9.84875 1.84607 9.85016 1.84607C9.85297 1.84607 9.85725 1.84607 9.86296 1.84608C9.87437 1.84609 9.89148 1.84611 9.91395 1.84616C9.9589 1.84625 10.0253 1.84643 10.1105 1.84679C10.281 1.84752 10.5266 1.84898 10.8263 1.8519C11.426 1.85774 12.2404 1.86941 13.1011 1.89271C13.9633 1.91605 14.8646 1.95087 15.6402 2.00251C16.4424 2.05593 17.0314 2.12299 17.316 2.19311L17.7944 0.251168ZM19.5135 1.30594C19.0696 0.811834 18.4812 0.435517 17.8147 0.256405L17.2956 2.18787C17.5707 2.26179 17.8278 2.42225 18.0258 2.64261L19.5135 1.30594ZM9.84458 3.3075C9.84458 4.3075 9.84457 4.3075 9.84458 4.3075C9.84461 4.3075 9.84464 4.3075 9.84469 4.3075C9.84481 4.3075 9.845 4.3075 9.84527 4.3075C9.84581 4.3075 9.84666 4.3075 9.84781 4.3075C9.85012 4.3075 9.85363 4.3075 9.85833 4.3075C9.86771 4.30751 9.88182 4.30753 9.90036 4.30757C9.93744 4.30764 9.99227 4.30779 10.0627 4.30809C10.2035 4.30868 10.4064 4.30987 10.6541 4.31226C11.1498 4.31703 11.8228 4.32657 12.5339 4.3456C13.2464 4.36467 13.9899 4.39309 14.6287 4.43514C15.2939 4.47893 15.7677 4.53326 15.9875 4.58678L16.4608 2.64359C16.0489 2.54327 15.4095 2.48221 14.7601 2.43946C14.0843 2.39498 13.3118 2.3657 12.5874 2.34631C11.8615 2.32689 11.1765 2.31719 10.6734 2.31235C10.4216 2.30993 10.215 2.30871 10.0711 2.3081C9.99914 2.3078 9.94281 2.30765 9.90433 2.30757C9.88509 2.30753 9.87031 2.30751 9.86026 2.30751C9.85523 2.3075 9.85139 2.3075 9.84877 2.3075C9.84746 2.3075 9.84645 2.3075 9.84575 2.3075C9.8454 2.3075 9.84512 2.3075 9.84493 2.3075C9.84483 2.3075 9.84474 2.3075 9.8447 2.3075C9.84463 2.3075 9.84458 2.3075 9.84458 3.3075ZM3.70165 4.58678C3.9214 4.53326 4.39528 4.47893 5.06044 4.43514C5.69927 4.39309 6.44274 4.36467 7.15527 4.3456C7.86635 4.32657 8.53935 4.31703 9.03504 4.31226C9.28271 4.30987 9.48568 4.30868 9.62649 4.30809C9.69689 4.30779 9.75172 4.30764 9.7888 4.30757C9.80734 4.30753 9.82144 4.30751 9.83083 4.3075C9.83552 4.3075 9.83904 4.3075 9.84134 4.3075C9.84249 4.3075 9.84334 4.3075 9.84388 4.3075C9.84415 4.3075 9.84435 4.3075 9.84446 4.3075C9.84452 4.3075 9.84455 4.3075 9.84458 4.3075C9.84459 4.3075 9.84458 4.3075 9.84458 3.3075C9.84458 2.3075 9.84453 2.3075 9.84446 2.3075C9.84441 2.3075 9.84432 2.3075 9.84423 2.3075C9.84403 2.3075 9.84376 2.3075 9.84341 2.3075C9.84271 2.3075 9.8417 2.3075 9.84039 2.3075C9.83776 2.3075 9.83392 2.3075 9.8289 2.30751C9.81885 2.30751 9.80406 2.30753 9.78482 2.30757C9.74634 2.30765 9.69002 2.3078 9.61805 2.3081C9.47412 2.30871 9.26752 2.30993 9.01579 2.31235C8.5127 2.31719 7.82767 2.32689 7.10176 2.34631C6.37732 2.3657 5.60484 2.39498 4.92907 2.43946C4.27962 2.48221 3.64023 2.54327 3.22835 2.64359L3.70165 4.58678ZM3.20003 4.9031C3.34172 4.74718 3.52603 4.63367 3.7218 4.58165L3.2082 2.64872C2.62482 2.80373 2.10942 3.1294 1.71989 3.55804L3.20003 4.9031ZM10.3209 7.35128L2.93624 3.35128L1.98368 5.10986L9.36829 9.10986L10.3209 7.35128ZM16.7529 3.35128L9.36829 7.35128L10.3209 9.10986L17.7055 5.10986L16.7529 3.35128ZM15.9674 4.58165C16.1631 4.63367 16.3474 4.74718 16.4891 4.9031L17.9693 3.55804C17.5797 3.1294 17.0643 2.80373 16.481 2.64872L15.9674 4.58165Z" fill="black" mask="url(#path-1-inside-1_77_1789)"/>
</svg>
