<svg width="17" height="16" viewBox="0 0 17 16" fill="none" xmlns="http://www.w3.org/2000/svg">
<path fill-rule="evenodd" clip-rule="evenodd" d="M15.3272 11.1984C14.8893 10.9795 12.9916 10.0306 12.6267 9.88467C12.2618 9.7387 11.9698 9.66571 11.7509 10.1036C11.4589 10.4686 10.7291 11.4174 10.5101 11.6364C10.2911 11.9283 10.0722 11.9283 9.63426 11.7093C9.26932 11.4904 7.95556 11.1254 6.42283 9.7387C5.25505 8.71688 4.45219 7.40312 4.23323 7.03819C4.01427 6.67325 4.23323 6.45429 4.3792 6.23533C4.52518 6.08936 4.74414 5.79741 4.9631 5.57845C5.03609 5.50546 5.03608 5.43248 5.10907 5.35949C5.18206 5.21352 5.25505 5.06754 5.32803 4.92157C5.47401 4.62962 5.40102 4.41067 5.32803 4.26469C5.25505 4.04573 4.4522 2.14808 4.08726 1.34522C3.79531 0.54237 3.43038 0.688342 3.21142 0.688342C2.99246 0.688342 2.70052 0.615356 2.48156 0.615356C2.18961 0.615356 1.75169 0.688341 1.38675 1.12626C1.02182 1.49119 0 2.51301 0 4.41066C0 4.84858 0.072989 5.35949 0.218962 5.72443C0.656883 7.11118 1.45974 8.27896 1.60572 8.49792C1.82468 8.78987 4.3792 12.8771 8.39347 14.4828C12.4807 16.0885 12.4807 15.5046 13.2106 15.4317C13.9405 15.3587 15.5462 14.4828 15.9111 13.534C16.276 12.5852 16.276 11.8553 16.1301 11.6364C15.9841 11.4904 15.6921 11.3444 15.3272 11.1984Z" fill="black"/>
</svg>
