<svg width="22" height="22" viewBox="0 0 22 22" fill="none" xmlns="http://www.w3.org/2000/svg">
<path d="M9.26825 2.31729C8.35532 2.31729 7.45133 2.49711 6.60789 2.84647C5.76445 3.19584 4.99808 3.70791 4.35254 4.35345C3.707 4.99899 3.19493 5.76536 2.84557 6.60879C2.49621 7.45223 2.31639 8.35623 2.31639 9.26916C2.31639 10.1821 2.49621 11.0861 2.84557 11.9295C3.19493 12.773 3.707 13.5393 4.35254 14.1849C4.99808 14.8304 5.76445 15.3425 6.60789 15.6918C7.45133 16.0412 8.35532 16.221 9.26825 16.221C11.1441 16.221 12.94 15.4806 14.1809 14.3023C14.422 14.073 14.7431 13.947 15.0758 13.9511C15.4085 13.9552 15.7264 14.0891 15.9617 14.3243L21.6739 20.0364C21.8849 20.255 22.0017 20.5476 21.9991 20.8514C21.9964 21.1552 21.8746 21.4458 21.6597 21.6606C21.4449 21.8755 21.1543 21.9973 20.8505 22C20.5467 22.0026 20.2541 21.8858 20.0355 21.6748L15.0001 16.6393C13.343 17.8714 11.3332 18.5373 9.26825 18.5383C7.36488 18.5381 5.50772 17.952 3.94907 16.8595C2.39043 15.7671 1.20588 14.2213 0.556376 12.4322C-0.0931326 10.6431 -0.176112 8.69736 0.318711 6.85943C0.813535 5.02151 1.86217 3.38048 3.32214 2.15929C4.78211 0.938104 6.58263 0.195977 8.47908 0.0337402C10.3755 -0.128497 12.2759 0.297021 13.9221 1.25248C15.5683 2.20794 16.8804 3.64702 17.6802 5.37419C18.48 7.10135 18.7288 9.03288 18.3926 10.9063C18.3306 11.201 18.1564 11.46 17.9067 11.6284C17.6571 11.7968 17.3517 11.8615 17.0553 11.8086C16.7588 11.7557 16.4946 11.5895 16.3186 11.3452C16.1426 11.1008 16.0686 10.7976 16.1124 10.4996C16.2924 9.4984 16.2505 8.46984 15.9897 7.48655C15.7288 6.50326 15.2553 5.5892 14.6027 4.80889C13.95 4.02857 13.134 3.40101 12.2122 2.97049C11.2905 2.53998 10.2856 2.317 9.26825 2.31729Z" fill="white"/>
</svg>
