<svg width="28" height="27" viewBox="0 0 28 27" fill="none" xmlns="http://www.w3.org/2000/svg">
<path d="M1.88117 11.5397C2.62729 13.0406 13.8194 25.7988 13.8194 25.7988C13.8194 25.7988 24.2121 13.6488 25.3802 11.9087C26.5483 10.1686 26.8062 7.96794 26.5037 6.2863C26.2012 4.60466 25.5745 3.62313 24.2653 2.5339C22.8452 1.35246 21.6308 0.990504 19.7885 1.03294C18.5874 1.06061 17.8597 1.2067 16.8039 1.78342C15.1643 2.67906 13.8194 5.53582 13.8194 5.53582C13.8194 5.53582 12.4744 2.67906 10.8348 1.78342C9.77906 1.2067 7.85027 1.03294 7.85027 1.03294C7.85027 1.03294 5.57102 0.76035 4.11953 1.78345C2.5188 2.91176 1.464 4.3483 1.13504 6.2863C0.788279 8.32913 1.13506 10.0387 1.88117 11.5397Z" stroke="black" stroke-width="1.4"/>
</svg>
