<svg width="53" height="41" viewBox="0 0 53 41" fill="none" xmlns="http://www.w3.org/2000/svg">
<path d="M52.8241 27.6857C52.8241 31.2283 51.574 34.2496 49.0739 36.7498C46.5737 39.2499 43.5546 40.5 40.0165 40.5C36.475 40.5 33.4542 39.2499 30.954 36.7498C28.4539 34.2496 27.2038 31.2283 27.2038 27.6857V9.24768H36.0104V27.6857C36.0319 28.7324 36.4628 29.7289 37.2106 30.4616C37.9585 31.1943 38.9637 31.6046 40.0106 31.6046C41.0575 31.6046 42.0627 31.1943 42.8106 30.4616C43.5584 29.7289 43.9893 28.7324 44.0108 27.6857V9.24768H52.8241V27.6857Z" fill="#EDBA64"/>
<path d="M26.5709 27.6857C26.5709 31.2283 25.3209 34.2496 22.8207 36.7498C20.3206 39.2499 17.2998 40.5 13.7583 40.5C10.2168 40.5 7.19597 39.2499 4.69583 36.7498C2.19569 34.2496 0.945618 31.2283 0.945618 27.6857V9.24768H9.75895V27.6857C9.78042 28.7324 10.2113 29.7289 10.9591 30.4616C11.707 31.1943 12.7122 31.6046 13.7591 31.6046C14.806 31.6046 15.8113 31.1943 16.5591 30.4616C17.3069 29.7289 17.7378 28.7324 17.7593 27.6857V9.24768H26.5726L26.5709 27.6857Z" fill="#EDBA64"/>
<path d="M9.75221 0.5H0.915314V27.6503H9.75221V0.5Z" fill="#EDBA64"/>
<path d="M52.8409 0.5H44.0175V27.6503H52.8409V0.5Z" fill="#EDBA64"/>
</svg>
