<svg id="Layer_1" data-name="Layer 1" xmlns="http://www.w3.org/2000/svg" viewBox="0 0 1319.47 238.29"><defs><style>.cls-1{fill:#edba64;}</style></defs><g id="WULUXE"><g id="w"><path class="cls-1" d="M579.09,567.69q0,31.57-22.28,53.85T503,643.82q-31.56,0-53.84-22.28t-22.28-53.85V458.15H479.2V567.69a23.77,23.77,0,0,0,47.53,0V458.15h52.36Z" transform="translate(-270.7 -406.18)"/><path class="cls-1" d="M423.12,567.69q0,31.57-22.28,53.85T347,643.82q-31.56,0-53.84-22.28t-22.28-53.85V458.15h52.36V567.69a23.77,23.77,0,0,0,47.53,0V458.15h52.36Z" transform="translate(-270.7 -406.18)"/><rect class="cls-1" width="52.5" height="161.3"/><rect class="cls-1" x="256.07" width="52.42" height="161.3"/></g><path d="M788,568q0,31.71-22.38,54.1t-54.1,22.38q-31.71,0-54.1-22.38T635.08,568V457.92h52.6V568a23.88,23.88,0,0,0,47.76,0V457.92H788Z" transform="translate(-270.7 -406.18)"/><path d="M963.39,644.46H844V457.92h52.6V591.86h66.78Z" transform="translate(-270.7 -406.18)"/><path d="M1172.32,568q0,31.71-22.39,54.1t-54.09,22.38q-31.72,0-54.1-22.38T1019.35,568V457.92H1072V568a23.88,23.88,0,0,0,47.75,0V457.92h52.61Z" transform="translate(-270.7 -406.18)"/><path d="M1414.82,644.46h-37.31l-56-56-56,56h-37.31V607.37l56.07-56.07-56.07-56.07V457.92h37.09l56.18,56.18,56.18-56.18h37.09v37.31l-56.07,56.07,56.07,56.07Z" transform="translate(-270.7 -406.18)"/><path d="M1590.17,644.46H1470.79V457.92h119.38v52.61h-66.78v14.55h66.78v52.6h-66.78v14.18h66.78Z" transform="translate(-270.7 -406.18)"/></g></svg>