<svg width="22" height="22" viewBox="0 0 27 27" fill="none" xmlns="http://www.w3.org/2000/svg">
<path fill-rule="evenodd" clip-rule="evenodd" d="M3.84147 4.31102C3.4806 2.72585 2.07111 1.60117 0.445389 1.60117V0.201172C2.72459 0.201172 4.70063 1.77793 5.20654 4.00027L5.36344 4.68947H25.5579H26.5546L26.2163 5.62704L24.9443 9.15249C23.7 12.6013 20.4271 14.8998 16.7607 14.8998H7.71674C8.48614 17.1172 10.5876 18.6531 12.996 18.6531H22.3791V20.0531H12.996C9.62796 20.0531 6.73982 17.6511 6.12482 14.3412L4.12234 5.54485L3.84147 4.31102ZM7.36911 13.4998H16.7607C19.8371 13.4998 22.5833 11.5712 23.6274 8.67735L24.5611 6.08947H5.68215L7.36911 13.4998ZM10.9835 24.8733C11.2878 24.8733 11.6015 24.6083 11.6015 24.1975C11.6015 23.7867 11.2878 23.5217 10.9835 23.5217C10.6793 23.5217 10.3656 23.7867 10.3656 24.1975C10.3656 24.6083 10.6793 24.8733 10.9835 24.8733ZM10.9835 26.2733C12.098 26.2733 13.0015 25.3439 13.0015 24.1975C13.0015 23.051 12.098 22.1217 10.9835 22.1217C9.86904 22.1217 8.96557 23.051 8.96557 24.1975C8.96557 25.3439 9.86904 26.2733 10.9835 26.2733ZM19.6726 24.1975C19.6726 24.6083 19.3589 24.8733 19.0546 24.8733C18.7504 24.8733 18.4367 24.6083 18.4367 24.1975C18.4367 23.7867 18.7504 23.5217 19.0546 23.5217C19.3589 23.5217 19.6726 23.7867 19.6726 24.1975ZM21.0726 24.1975C21.0726 25.3439 20.1691 26.2733 19.0546 26.2733C17.9401 26.2733 17.0367 25.3439 17.0367 24.1975C17.0367 23.051 17.9401 22.1217 19.0546 22.1217C20.1691 22.1217 21.0726 23.051 21.0726 24.1975Z" fill="white"/>
<path d="M11.3489 8.96972L14.0329 11.5677L18.8641 6.89136" stroke="white" stroke-width="1.4"/>
</svg>
