<svg width="22" height="23" viewBox="0 0 22 23" fill="none" xmlns="http://www.w3.org/2000/svg">
<path d="M10 1.25C10 0.984784 10.1054 0.73043 10.2929 0.542893C10.4804 0.355357 10.7348 0.25 11 0.25C17.075 0.25 22 5.175 22 11.25C22 17.325 17.075 22.25 11 22.25C4.925 22.25 1.87828e-07 17.325 1.87828e-07 11.25C-0.00038254 9.17855 0.584141 7.14909 1.6863 5.3952C2.78845 3.6413 4.36344 2.23426 6.23 1.336C6.35303 1.27677 6.4869 1.24336 6.62334 1.23783C6.75978 1.23231 6.8959 1.25479 7.02332 1.30388C7.15074 1.35297 7.26676 1.42764 7.36422 1.52329C7.46168 1.61893 7.53852 1.73352 7.59 1.86C7.882 2.58 8.28 3.425 8.952 4.093C9.592 4.731 10.524 5.25 12 5.25C12.2652 5.25 12.5196 5.35536 12.7071 5.54289C12.8946 5.73043 13 5.98478 13 6.25C13 6.51522 12.8946 6.76957 12.7071 6.95711C12.5196 7.14464 12.2652 7.25 12 7.25C9.976 7.25 8.542 6.507 7.541 5.51C6.941 4.914 6.514 4.243 6.201 3.635C4.36624 4.7908 3.01047 6.57018 2.38304 8.64588C1.7556 10.7216 1.89869 12.954 2.78599 14.9326C3.67329 16.9113 5.24513 18.503 7.21243 19.4151C9.17972 20.3272 11.4102 20.4984 13.4936 19.8971C15.5771 19.2958 17.3733 17.9625 18.5521 16.1424C19.7309 14.3224 20.2129 12.1379 19.9095 9.99076C19.6061 7.84363 18.5377 5.87824 16.9008 4.45604C15.2638 3.03384 13.1685 2.25047 11 2.25C10.8686 2.25013 10.7385 2.22436 10.617 2.17417C10.4956 2.12397 10.3852 2.05033 10.2922 1.95746C10.1993 1.86459 10.1255 1.75431 10.0752 1.63291C10.0249 1.51152 9.999 1.38141 9.999 1.25H10Z" fill="black"/>
<path d="M7.6875 15.3581C8.875 16.6914 11.8625 18.5581 14.3125 15.3581" stroke="black" stroke-width="1.8" stroke-linecap="round"/>
<path d="M15.5 9.09375V11.6875" stroke="black" stroke-width="1.8" stroke-linecap="round"/>
<path d="M6.375 9.09375V11.6875" stroke="black" stroke-width="1.8" stroke-linecap="round"/>
</svg>
