<svg width="28" height="24" viewBox="0 0 28 24" fill="none" xmlns="http://www.w3.org/2000/svg">
<path fill-rule="evenodd" clip-rule="evenodd" d="M14.7475 4.8948L2.09912 12.1973L7.99809 22.4146L20.6464 15.1121L20.5576 14.9583L20.5758 14.9478L20.5595 14.9427L22.7977 7.09784L14.9144 5.02235L14.8444 5.06276L14.7475 4.8948ZM15.3788 4.11892C15.0663 3.86475 14.6171 3.81538 14.2475 4.02877L1.59912 11.3313C1.12083 11.6074 0.956951 12.219 1.23309 12.6973L7.13206 22.9146C7.40821 23.3929 8.0198 23.5568 8.49809 23.2807L21.1464 15.9781C21.5347 15.754 21.7157 15.3088 21.6225 14.8933L23.9028 6.90093L24.0455 6.40067L23.534 6.26598L15.3788 4.11892Z" fill="black"/>
<circle cx="16.1366" cy="10.9553" r="2.5044" transform="rotate(-30 16.1366 10.9553)" stroke="black"/>
</svg>
