<svg width="30" height="26" viewBox="0 0 27 27" fill="none" xmlns="http://www.w3.org/2000/svg">
<path fill-rule="evenodd" clip-rule="evenodd" d="M3.39608 4.10985C3.03521 2.52468 1.62573 1.4 0 1.4V0C2.2792 0 4.25524 1.57675 4.76115 3.79909L4.91805 4.48829H25.1125H26.1092L25.7709 5.42587L24.499 8.95132C23.2546 12.4001 19.9817 14.6987 16.3153 14.6987H7.27135C8.04075 16.9161 10.1423 18.4519 12.5506 18.4519H21.9337V19.8519H12.5506C9.18257 19.8519 6.29443 17.4499 5.67943 14.14L3.67696 5.34367L3.39608 4.10985ZM6.92372 13.2987H16.3153C19.3917 13.2987 22.138 11.37 23.182 8.47618L24.1158 5.88829H5.23676L6.92372 13.2987ZM10.5381 24.6722C10.8424 24.6722 11.1561 24.4071 11.1561 23.9963C11.1561 23.5855 10.8424 23.3205 10.5381 23.3205C10.2339 23.3205 9.92018 23.5855 9.92018 23.9963C9.92018 24.4071 10.2339 24.6722 10.5381 24.6722ZM10.5381 26.0722C11.6526 26.0722 12.5561 25.1428 12.5561 23.9963C12.5561 22.8499 11.6526 21.9205 10.5381 21.9205C9.42365 21.9205 8.52018 22.8499 8.52018 23.9963C8.52018 25.1428 9.42365 26.0722 10.5381 26.0722ZM19.2272 23.9963C19.2272 24.4071 18.9135 24.6722 18.6093 24.6722C18.305 24.6722 17.9913 24.4071 17.9913 23.9963C17.9913 23.5855 18.305 23.3205 18.6093 23.3205C18.9135 23.3205 19.2272 23.5855 19.2272 23.9963ZM20.6272 23.9963C20.6272 25.1428 19.7237 26.0722 18.6093 26.0722C17.4948 26.0722 16.5913 25.1428 16.5913 23.9963C16.5913 22.8499 17.4948 21.9205 18.6093 21.9205C19.7237 21.9205 20.6272 22.8499 20.6272 23.9963Z" fill="black"/>
</svg>
