<svg width="22" height="22" viewBox="0 0 27 27" fill="none" xmlns="http://www.w3.org/2000/svg">
<path fill-rule="evenodd" clip-rule="evenodd" d="M3.89608 4.60985C3.53521 3.02468 2.12573 1.9 0.5 1.9V0.5C2.7792 0.5 4.75524 2.07675 5.26115 4.29909L5.41805 4.98829H25.6125H26.6092L26.2709 5.92587L24.999 9.45132C23.7546 12.9001 20.4817 15.1987 16.8153 15.1987H7.77135C8.54075 17.4161 10.6423 18.9519 13.0506 18.9519H22.4337V20.3519H13.0506C9.68257 20.3519 6.79443 17.9499 6.17943 14.64L4.17696 5.84367L3.89608 4.60985ZM7.42372 13.7987H16.8153C19.8917 13.7987 22.638 11.87 23.682 8.97618L24.6158 6.38829H5.73676L7.42372 13.7987ZM11.0381 25.1722C11.3424 25.1722 11.6561 24.9071 11.6561 24.4963C11.6561 24.0855 11.3424 23.8205 11.0381 23.8205C10.7339 23.8205 10.4202 24.0855 10.4202 24.4963C10.4202 24.9071 10.7339 25.1722 11.0381 25.1722ZM11.0381 26.5722C12.1526 26.5722 13.0561 25.6428 13.0561 24.4963C13.0561 23.3499 12.1526 22.4205 11.0381 22.4205C9.92365 22.4205 9.02018 23.3499 9.02018 24.4963C9.02018 25.6428 9.92365 26.5722 11.0381 26.5722ZM19.7272 24.4963C19.7272 24.9071 19.4135 25.1722 19.1093 25.1722C18.805 25.1722 18.4913 24.9071 18.4913 24.4963C18.4913 24.0855 18.805 23.8205 19.1093 23.8205C19.4135 23.8205 19.7272 24.0855 19.7272 24.4963ZM21.1272 24.4963C21.1272 25.6428 20.2237 26.5722 19.1093 26.5722C17.9948 26.5722 17.0913 25.6428 17.0913 24.4963C17.0913 23.3499 17.9948 22.4205 19.1093 22.4205C20.2237 22.4205 21.1272 23.3499 21.1272 24.4963Z" fill="white"/>
</svg>
