<svg width="20" height="20" viewBox="0 0 20 20" fill="none" xmlns="http://www.w3.org/2000/svg">
<rect x="0.5" y="0.5" width="19" height="19" rx="4.5" stroke="white"/>
<circle cx="6.6425" cy="4.67375" r="1.455" stroke="white"/>
<path fill-rule="evenodd" clip-rule="evenodd" d="M7.54048 5.65218C7.84934 5.37366 8.04348 4.97037 8.04348 4.52174C8.04348 4.19843 7.94265 3.89866 7.77072 3.65218H16.3913C16.9435 3.65218 17.3913 4.09989 17.3913 4.65218C17.3913 5.20446 16.9435 5.65218 16.3913 5.65218H7.54048ZM5.50299 5.65218H3.60864C3.05636 5.65218 2.60864 5.20446 2.60864 4.65218C2.60864 4.09989 3.05636 3.65218 3.60864 3.65218H5.27276C5.10083 3.89866 5 4.19843 5 4.52174C5 4.97037 5.19414 5.37366 5.50299 5.65218Z" fill="white"/>
<circle r="1.45652" transform="matrix(-1 0 0 1 13.9565 9.95652)" stroke="white"/>
<circle r="1.45652" transform="matrix(-1 0 0 1 8.62319 14.6232)" stroke="white"/>
<path fill-rule="evenodd" clip-rule="evenodd" d="M12.3204 10.8696C12.2265 10.6719 12.174 10.4508 12.174 10.2174C12.174 9.63222 12.5043 9.12418 12.9886 8.86957H3.60875C3.05646 8.86957 2.60875 9.31728 2.60875 9.86957C2.60875 10.4219 3.05646 10.8696 3.60875 10.8696H12.3204ZM15.071 10.8696H16.3914C16.9436 10.8696 17.3914 10.4219 17.3914 9.86957C17.3914 9.31728 16.9436 8.86957 16.3914 8.86957H14.4028C14.8871 9.12418 15.2174 9.63222 15.2174 10.2174C15.2174 10.4508 15.1649 10.6719 15.071 10.8696Z" fill="white"/>
<path fill-rule="evenodd" clip-rule="evenodd" d="M9.46054 15.6522C9.79023 15.377 10 14.963 10 14.5C10 14.1854 9.90313 13.8933 9.73758 13.6522H16.3913C16.9435 13.6522 17.3913 14.0999 17.3913 14.6522C17.3913 15.2044 16.9435 15.6522 16.3913 15.6522H9.46054ZM7.53946 15.6522H3.60864C3.05636 15.6522 2.60864 15.2044 2.60864 14.6522C2.60864 14.0999 3.05636 13.6522 3.60864 13.6522H7.26242C7.09687 13.8933 7 14.1854 7 14.5C7 14.963 7.20977 15.377 7.53946 15.6522Z" fill="white"/>
</svg>
