<svg width="20" height="20" viewBox="0 0 20 20" fill="none" xmlns="http://www.w3.org/2000/svg">
<path d="M13 0C13.7956 0 14.5587 0.316071 15.1213 0.87868C15.6839 1.44129 16 2.20435 16 3V4H17C17.7956 4 18.5587 4.31607 19.1213 4.87868C19.6839 5.44129 20 6.20435 20 7V17C20 17.7956 19.6839 18.5587 19.1213 19.1213C18.5587 19.6839 17.7956 20 17 20H7C6.20435 20 5.44129 19.6839 4.87868 19.1213C4.31607 18.5587 4 17.7956 4 17V16H3C2.20435 16 1.44129 15.6839 0.87868 15.1213C0.316071 14.5587 0 13.7956 0 13V3C0 2.20435 0.316071 1.44129 0.87868 0.87868C1.44129 0.316071 2.20435 0 3 0H13ZM18 7C18 6.73478 17.8946 6.48043 17.7071 6.29289C17.5196 6.10536 17.2652 6 17 6H16V13C16 13.7956 15.6839 14.5587 15.1213 15.1213C14.5587 15.6839 13.7956 16 13 16H9.003C8.87168 16.0002 8.7416 15.9745 8.6202 15.9245C8.4988 15.8744 8.38845 15.8009 8.29545 15.7082C8.20246 15.6154 8.12863 15.5053 8.07819 15.3841C8.02776 15.2628 8.0017 15.1328 8.0015 15.0015C8.0013 14.8702 8.02697 14.7401 8.07705 14.6187C8.12712 14.4973 8.20061 14.387 8.29333 14.294C8.38605 14.201 8.49618 14.1271 8.61743 14.0767C8.73868 14.0263 8.86868 14.0002 9 14H13C13.2652 14 13.5196 13.8946 13.7071 13.7071C13.8946 13.5196 14 13.2652 14 13V3C14 2.73478 13.8946 2.48043 13.7071 2.29289C13.5196 2.10536 13.2652 2 13 2H2.986C2.72078 2 2.46643 2.10536 2.27889 2.29289C2.09136 2.48043 1.986 2.73478 1.986 3V13C1.986 13.2652 2.09136 13.5196 2.27889 13.7071C2.46643 13.8946 2.72078 14 2.986 14H5C5.26522 14 5.51957 14.1054 5.70711 14.2929C5.89464 14.4804 6 14.7348 6 15V17C6 17.2652 6.10536 17.5196 6.29289 17.7071C6.48043 17.8946 6.73478 18 7 18H17C17.2652 18 17.5196 17.8946 17.7071 17.7071C17.8946 17.5196 18 17.2652 18 17V7Z" fill="#707F8D"/>
</svg>
