<svg width="20" height="22" viewBox="0 0 20 22" fill="none" xmlns="http://www.w3.org/2000/svg">
<path d="M14.976 2.63L9.994 0L0 5.412V16.602L5.525 19.585C5.75742 19.7019 6.02624 19.7236 6.2744 19.6455C6.52256 19.5674 6.73053 19.3957 6.85415 19.1668C6.97778 18.9379 7.00733 18.6698 6.93654 18.4195C6.86575 18.1692 6.70019 17.9563 6.475 17.826L2 15.41V7.707L4.015 8.827C4.00483 8.8841 3.99981 8.942 4 9V12C4 12.2652 4.10536 12.5196 4.29289 12.7071C4.48043 12.8946 4.73478 13 5 13C5.26522 13 5.51957 12.8946 5.70711 12.7071C5.89464 12.5196 6 12.2652 6 12V9.93L9 11.595V20.989C9 21.759 9.827 22.245 10.5 21.872L20 16.595V5.42L14.976 2.63ZM5.5 7.363L3.08 6.019L10.006 2.268L12.4 3.53L5.5 7.364V7.363ZM7.56 8.507L14.5 4.651L16.94 6.007L10 9.863L7.56 8.508V8.507ZM11 19.307V11.596L18 7.707V15.418L11 19.307Z" fill="black"/>
</svg>
