<svg width="25" height="24" viewBox="0 0 25 24" fill="none" xmlns="http://www.w3.org/2000/svg">
<mask id="mask0" mask-type="alpha" maskUnits="userSpaceOnUse" x="1" y="4" width="22" height="19">
<path fill-rule="evenodd" clip-rule="evenodd" d="M23 4H1V23H11V13H23V4Z" fill="white"/>
</mask>
<g mask="url(#mask0)">
<path fill-rule="evenodd" clip-rule="evenodd" d="M10.9646 18H14.0354C14.2781 19.6961 15.7368 21 17.5 21C19.3201 21 20.8156 19.6108 20.9842 17.8348C22.1576 17.4275 23 16.3121 23 15V13.3328C23 12.2514 22.6494 11.1991 22.0008 10.3338L21.0017 9.00103C20.0575 7.7414 18.5752 7 17.001 7H16C16 5.34315 14.6569 4 13 4H4C2.34315 4 1 5.34315 1 7V15C1 16.6569 2.34315 18 4 18H4.03544C4.27806 19.6961 5.73676 21 7.5 21C9.26324 21 10.7219 19.6961 10.9646 18ZM14 8C14 8.02825 14.0012 8.05623 14.0035 8.08389V10.9588C14.0035 11.5111 14.4512 11.9588 15.0035 11.9588C15.5558 11.9588 16.0035 11.5111 16.0035 10.9588V9H17.001C17.9455 9 18.8349 9.44484 19.4014 10.2006L20.4005 11.5334C20.7896 12.0526 21 12.6839 21 13.3328V15C21 15.3398 20.8306 15.64 20.5716 15.8207C19.9771 14.7357 18.8245 14 17.5 14C16.1038 14 14.8985 14.8175 14.3368 16H10.6632C10.1015 14.8175 8.8962 14 7.5 14C6.1038 14 4.89855 14.8175 4.33682 16H4C3.44772 16 3 15.5523 3 15V7C3 6.44772 3.44772 6 4 6H13C13.5523 6 14 6.44772 14 7V8ZM7.5 19C8.32843 19 9 18.3284 9 17.5C9 16.6716 8.32843 16 7.5 16C6.67157 16 6 16.6716 6 17.5C6 18.3284 6.67157 19 7.5 19ZM19 17.5C19 18.3284 18.3284 19 17.5 19C16.6716 19 16 18.3284 16 17.5C16 16.6716 16.6716 16 17.5 16C18.3284 16 19 16.6716 19 17.5Z" fill="#001A34"/>
</g>
<path d="M11 16H12C12.5523 16 13 16.4477 13 17V17C13 17.5523 12.5523 18 12 18H11V16Z" fill="#001A34"/>
<path d="M23 13V13C23 13.5523 22.5523 14 22 14V14C21.4477 14 21 13.5523 21 13V13L23 13Z" fill="#001A34"/>
<path d="M23.2929 15.2929L18 20.5858L15.7071 18.2929C15.3166 17.9024 14.6835 17.9024 14.2929 18.2929C13.9024 18.6834 13.9024 19.3166 14.2929 19.7071L17.2929 22.7071C17.4882 22.9023 17.7441 23 18 23C18.256 23 18.5119 22.9023 18.7071 22.7071L24.7071 16.7071C25.0976 16.3166 25.0976 15.6835 24.7071 15.2929C24.3166 14.9024 23.6834 14.9024 23.2929 15.2929Z" fill="#001A34"/>
</svg>
