<svg width="25" height="23" viewBox="0 0 28 28" fill="none" xmlns="http://www.w3.org/2000/svg">
<path d="M1.88117 12.0397C2.62729 13.5406 13.8194 26.2988 13.8194 26.2988C13.8194 26.2988 24.2121 14.1488 25.3802 12.4087C26.5483 10.6686 26.8062 8.46794 26.5037 6.7863C26.2012 5.10466 25.5745 4.12313 24.2653 3.0339C22.8452 1.85246 21.6308 1.4905 19.7885 1.53294C18.5874 1.56061 17.8597 1.7067 16.8039 2.28342C15.1643 3.17906 13.8194 6.03582 13.8194 6.03582C13.8194 6.03582 12.4744 3.17906 10.8348 2.28342C9.77906 1.7067 7.85027 1.53294 7.85027 1.53294C7.85027 1.53294 5.57102 1.26035 4.11953 2.28345C2.5188 3.41176 1.464 4.8483 1.13504 6.7863C0.788279 8.82913 1.13506 10.5387 1.88117 12.0397Z" stroke="white" stroke-width="1.4"/>
</svg>
