<svg width="25" height="23" viewBox="0 0 25 23" fill="none" xmlns="http://www.w3.org/2000/svg">
<path d="M1.79106 9.96057C2.46088 11.2367 12.5084 22.0833 12.5084 22.0833C12.5084 22.0833 21.8383 11.7537 22.887 10.2743C23.9356 8.79493 24.1671 6.92398 23.8956 5.49429C23.624 4.0646 23.0614 3.23013 21.8861 2.30409C20.6113 1.29966 19.5211 0.991927 17.8671 1.02801C16.7888 1.05153 16.1355 1.17573 15.1877 1.66605C13.7158 2.4275 12.5084 4.85625 12.5084 4.85625C12.5084 4.85625 11.301 2.4275 9.82907 1.66605C8.88128 1.17573 7.14973 1.02801 7.14973 1.02801C7.14973 1.02801 5.10357 0.796255 3.80051 1.66607C2.36348 2.62533 1.41655 3.84664 1.12123 5.49429C0.80993 7.23106 1.12125 8.68446 1.79106 9.96057Z" fill="#ffffff" stroke="#ffffff" stroke-width="0.8"/>
</svg>
