<svg width="20" height="26" viewBox="0 0 20 26" fill="none" xmlns="http://www.w3.org/2000/svg">
<path fill-rule="evenodd" clip-rule="evenodd" d="M6.98313 0.5C6.20497 0.5 5.47568 0.90644 5.02901 1.58916L0.436414 8.60915C-0.576505 10.1575 0.28066 12.2362 1.90945 12.5834V22.9432C1.90945 24.3554 2.97786 25.5 4.29581 25.5H15.7857C17.1037 25.5 18.1721 24.3554 18.1721 22.9432V12.5645C19.7653 12.1626 20.5722 10.0885 19.5366 8.56904L14.7527 1.54905C14.3034 0.889794 13.5873 0.5 12.8254 0.5H6.98313ZM6.04227 2.35013C6.25732 2.02149 6.60845 1.82567 6.98313 1.82567H12.8254C13.1922 1.82567 13.537 2.0134 13.7534 2.33083L18.5373 9.35082C19.0917 10.1642 18.5494 11.3078 17.6094 11.3078H2.39053C1.46063 11.3078 0.915907 10.186 1.44966 9.37013L6.04227 2.35013Z" fill="black"/>
</svg>
