<svg width="14" height="24" viewBox="0 0 14 24" fill="none" xmlns="http://www.w3.org/2000/svg">
<path d="M6.94501 12.394C5.30835 12.388 3.73987 11.7377 2.57901 10.584C1.42125 9.434 0.766754 7.87183 0.759015 6.24C0.76403 4.59922 1.415 3.02641 2.57101 1.862C3.7301 0.694228 5.29987 0.0259803 6.94501 3.58557e-06C7.76386 -0.000876804 8.57478 0.160377 9.33099 0.474465C10.0872 0.788552 10.7737 1.24926 11.351 1.83C11.9257 2.40996 12.3791 3.09868 12.6845 3.85588C12.99 4.61309 13.1414 5.42359 13.13 6.24C13.1406 7.05198 12.9877 7.85778 12.6804 8.60941C12.373 9.36104 11.9175 10.0431 11.341 10.615C10.7639 11.1898 10.0777 11.6433 9.3228 11.949C8.56786 12.2547 7.75942 12.4063 6.94501 12.395V12.394ZM6.94501 3.676C6.59957 3.6757 6.25755 3.74456 5.93914 3.87852C5.62072 4.01248 5.33235 4.20883 5.09101 4.456C4.85102 4.70312 4.6633 4.99608 4.53908 5.31738C4.41486 5.63867 4.35668 5.98172 4.36801 6.326C4.36289 6.66045 4.42676 6.99236 4.55563 7.30103C4.6845 7.60969 4.8756 7.88849 5.11701 8.12C5.35889 8.35275 5.64586 8.5335 5.96024 8.65114C6.27463 8.76877 6.60976 8.8208 6.94501 8.804C7.27816 8.8119 7.60957 8.75386 7.9202 8.63321C8.23083 8.51257 8.51454 8.33169 8.75502 8.101C8.99421 7.8706 9.1852 7.59493 9.31688 7.29003C9.44855 6.98514 9.51828 6.6571 9.52202 6.325C9.53359 5.9809 9.47541 5.63802 9.35098 5.31699C9.22656 4.99596 9.03846 4.70343 8.79802 4.457C8.55723 4.20932 8.26912 4.01255 7.9508 3.87839C7.63248 3.74422 7.29045 3.6754 6.94501 3.676V3.676ZM9.43502 17.523L12.958 20.942C13.1213 21.1045 13.2508 21.2977 13.3392 21.5104C13.4276 21.7231 13.4731 21.9512 13.4731 22.1815C13.4731 22.4118 13.4276 22.6399 13.3392 22.8526C13.2508 23.0653 13.1213 23.2585 12.958 23.421C12.8054 23.6029 12.6147 23.749 12.3994 23.849C12.1841 23.9491 11.9494 24.0006 11.712 24C11.4748 23.9997 11.2405 23.9477 11.0254 23.8475C10.8104 23.7474 10.6198 23.6015 10.467 23.42L6.94501 20.002L3.50901 23.421C3.34147 23.5911 3.14033 23.7245 2.91841 23.8127C2.69649 23.9008 2.45864 23.9418 2.22001 23.933C1.74455 23.9157 1.28963 23.7348 0.932015 23.421C0.686369 23.1762 0.518928 22.8641 0.450921 22.524C0.382914 22.184 0.417403 21.8314 0.550015 21.511C0.638015 21.298 0.768015 21.105 0.932015 20.941L4.54001 17.523C3.25144 17.1225 2.01225 16.5777 0.846015 15.899C0.447811 15.641 0.163588 15.2403 0.0518003 14.7792C-0.0599876 14.3181 0.00915714 13.8317 0.245015 13.42C0.376183 13.2127 0.548177 13.0342 0.750524 12.8955C0.952871 12.7567 1.18134 12.6606 1.42201 12.613C1.66314 12.565 1.91147 12.5663 2.15208 12.6169C2.39268 12.6674 2.62056 12.7661 2.82201 12.907C4.08041 13.6622 5.52041 14.0611 6.98801 14.0611C8.45562 14.0611 9.89562 13.6622 11.154 12.907C11.3552 12.7664 11.5828 12.6679 11.823 12.6175C12.0633 12.5671 12.3112 12.5659 12.5519 12.6138C12.7927 12.6617 13.0212 12.7579 13.2239 12.8964C13.4265 13.035 13.599 13.2131 13.731 13.42C13.9751 13.8217 14.0576 14.3011 13.9618 14.7612C13.866 15.2214 13.5991 15.6281 13.215 15.899C12.0188 16.5781 10.7511 17.1228 9.43502 17.523V17.523Z" fill="#F58021"/>
</svg>
