<svg width="26" height="26" viewBox="0 0 27 26" fill="none" xmlns="http://www.w3.org/2000/svg">
<path fill-rule="evenodd" clip-rule="evenodd" d="M25.0271 12.79C25.0271 19.0379 19.7813 24.18 13.2135 24.18C6.64576 24.18 1.4 19.0379 1.4 12.79C1.4 6.54212 6.64576 1.4 13.2135 1.4C19.7813 1.4 25.0271 6.54212 25.0271 12.79ZM26.4271 12.79C26.4271 19.8537 20.5112 25.58 13.2135 25.58C5.9159 25.58 0 19.8537 0 12.79C0 5.72628 5.9159 0 13.2135 0C20.5112 0 26.4271 5.72628 26.4271 12.79ZM11.569 17.0067L19.2414 9.58024L18.2677 8.5743L11.0821 15.5295L7.30655 11.8749L6.33286 12.8809L10.5953 17.0067L11.0821 17.4779L11.569 17.0067Z" fill="black"/>
</svg>
