<svg width="14" height="20" viewBox="0 0 18 23" fill="none" xmlns="http://www.w3.org/2000/svg">
<path fill-rule="evenodd" clip-rule="evenodd" d="M16.1985 11.6292C14.9276 13.9551 8.7791 23 8.7791 23C8.7791 23 1.56164 13.6966 0.619169 11.6292C-0.323305 9.5618 -0.399266 5.73381 1.89002 3.06628C3.5519 1.12983 5.63969 2.90357e-05 8.52491 5.51323e-10C11.4102 -2.88187e-05 13.5068 1.1298 15.1687 3.06628C17.458 5.73381 17.4693 9.30337 16.1985 11.6292ZM8.49885 12.6991C10.4642 12.6991 12.0574 10.9655 12.0574 8.82697C12.0574 6.68849 10.4642 4.9549 8.49885 4.9549C6.53352 4.9549 4.94031 6.68849 4.94031 8.82697C4.94031 10.9655 6.53352 12.6991 8.49885 12.6991Z" fill="#F0BC5E"/>
</svg>
