<svg width="37" height="22" viewBox="0 0 37 22" fill="none" xmlns="http://www.w3.org/2000/svg">
<path fill-rule="evenodd" clip-rule="evenodd" d="M33.0911 10.3713C33.0911 11.9698 31.8911 13.7212 29.2781 15.1541C26.7164 16.5589 23.082 17.4713 18.9911 17.4713C14.9001 17.4713 11.2658 16.5589 8.7041 15.1541C6.09112 13.7212 4.89109 11.9698 4.89109 10.3713C4.89109 8.77267 6.09112 7.02131 8.7041 5.58838C11.2658 4.18358 14.9001 3.27125 18.9911 3.27125C23.082 3.27125 26.7164 4.18358 29.2781 5.58838C31.8911 7.02131 33.0911 8.77267 33.0911 10.3713ZM34.4911 10.3713C34.4911 15.0657 27.5515 18.8713 18.9911 18.8713C10.4307 18.8713 3.49109 15.0657 3.49109 10.3713C3.49109 5.67683 10.4307 1.87125 18.9911 1.87125C27.5515 1.87125 34.4911 5.67683 34.4911 10.3713ZM18.9911 15.8713C22.0287 15.8713 24.4911 13.4088 24.4911 10.3713C24.4911 7.33368 22.0287 4.87125 18.9911 4.87125C15.9535 4.87125 13.4911 7.33368 13.4911 10.3713C13.4911 13.4088 15.9535 15.8713 18.9911 15.8713ZM0 20L35.5 0L36.4817 1.7425L0.981687 21.7425L0 20Z" fill="black"/>
</svg>
