<svg width="28" height="16" viewBox="0 0 28 16" fill="none" xmlns="http://www.w3.org/2000/svg">
<path fill-rule="evenodd" clip-rule="evenodd" d="M26.6 7.93333C26.6 9.3989 25.5379 11.0055 23.2093 12.325C20.9225 13.6209 17.6694 14.4667 14 14.4667C10.3306 14.4667 7.07752 13.6209 4.79072 12.325C2.46208 11.0055 1.4 9.3989 1.4 7.93333C1.4 6.46777 2.46208 4.86121 4.79072 3.54165C7.07752 2.2458 10.3306 1.4 14 1.4C17.6694 1.4 20.9225 2.2458 23.2093 3.54165C25.5379 4.86121 26.6 6.46777 26.6 7.93333ZM28 7.93333C28 12.3148 21.732 15.8667 14 15.8667C6.26801 15.8667 0 12.3148 0 7.93333C0 3.55187 6.26801 0 14 0C21.732 0 28 3.55187 28 7.93333ZM14 13.0667C16.7436 13.0667 18.9677 10.7684 18.9677 7.93333C18.9677 5.09827 16.7436 2.8 14 2.8C11.2564 2.8 9.03226 5.09827 9.03226 7.93333C9.03226 10.7684 11.2564 13.0667 14 13.0667Z" fill="black"/>
</svg>
