<svg width="23" height="21" viewBox="0 0 23 21" fill="none" xmlns="http://www.w3.org/2000/svg">
<path d="M19.874 3.002C19.8467 2.99773 19.8188 3.00192 19.794 3.014L2.08999 10.646C1.92299 10.723 1.99699 10.875 2.20699 10.953L5.33399 12.057C5.45783 12.1007 5.57184 12.1684 5.66951 12.2562C5.76719 12.344 5.84661 12.4502 5.90326 12.5687C5.9599 12.6872 5.99265 12.8156 5.99964 12.9468C6.00663 13.0779 5.98772 13.2092 5.94399 13.333C5.90026 13.4568 5.83257 13.5709 5.74477 13.6685C5.65698 13.7662 5.55081 13.8456 5.43232 13.9023C5.19303 14.0167 4.91809 14.0313 4.66799 13.943L1.58099 12.853C-0.37001 12.325 -0.57501 9.617 1.29699 8.81L19.003 1.178C20.623 0.478004 22.345 1.926 21.942 3.641L18.25 19.343C18.1715 19.6777 18.0138 19.9886 17.7901 20.2497C17.5664 20.5107 17.2833 20.7142 16.9646 20.8429C16.6459 20.9717 16.3009 21.0221 15.9586 20.9897C15.6164 20.9573 15.2869 20.8432 14.998 20.657L8.99599 16.842C8.74345 16.6783 8.52812 16.4634 8.36396 16.2112C8.19979 15.959 8.09045 15.6751 8.04303 15.3779C7.99561 15.0808 8.01115 14.7769 8.08867 14.4862C8.16618 14.1954 8.30393 13.9241 8.49299 13.69L12.243 9.347C12.3277 9.24408 12.4321 9.15913 12.5501 9.09714C12.668 9.03514 12.7972 8.99736 12.93 8.98601C13.0628 8.97466 13.1966 8.98997 13.3234 9.03104C13.4501 9.07211 13.5675 9.13811 13.6684 9.22517C13.7693 9.31223 13.8518 9.41858 13.911 9.53798C13.9703 9.65737 14.005 9.78741 14.0133 9.92043C14.0215 10.0535 14.0031 10.1868 13.9591 10.3126C13.9151 10.4384 13.8464 10.5541 13.757 10.653L10.037 14.963C10.0174 14.9955 10.0111 15.0343 10.0193 15.0713C10.0275 15.1083 10.0496 15.1408 10.081 15.162L16.081 18.976C16.165 19.03 16.279 18.986 16.303 18.886L19.995 3.184C20.0027 3.1571 20.002 3.1285 19.993 3.102C19.9834 3.07627 19.9672 3.05351 19.946 3.036C19.9254 3.01859 19.9005 3.00687 19.874 3.002V3.002Z" fill="#40B7F3"/>
</svg>
