<svg width="22" height="18" viewBox="0 0 22 18" fill="none" xmlns="http://www.w3.org/2000/svg">
<path d="M22 2.131C21.1767 2.49792 20.303 2.73895 19.408 2.846C20.3521 2.27613 21.0572 1.38274 21.392 0.332C20.5069 0.861007 19.5375 1.23378 18.526 1.434C18.1049 0.98147 17.5951 0.620581 17.0284 0.373855C16.4616 0.12713 15.8501 -0.000136067 15.232 1.09168e-07C12.74 1.09168e-07 10.72 2.035 10.72 4.545C10.72 4.9 10.76 5.245 10.836 5.579C7.084 5.389 3.759 3.579 1.533 0.831C1.13264 1.52556 0.922252 2.31331 0.923 3.115C0.923 4.692 1.72 6.084 2.93 6.898C2.21293 6.87474 1.51194 6.6796 0.886 6.329V6.388C0.883464 7.43414 1.24237 8.44905 1.90201 9.26103C2.56165 10.073 3.48152 10.6322 4.506 10.844C3.84149 11.025 3.1444 11.0517 2.468 10.922C2.75312 11.8225 3.31323 12.611 4.06961 13.1767C4.826 13.7424 5.74065 14.0569 6.685 14.076C5.75043 14.816 4.67844 15.3635 3.531 15.6867C2.38356 16.0099 1.18343 16.1025 0 15.959C2.06038 17.2934 4.46324 18.0023 6.918 18C15.221 18 19.761 11.077 19.761 5.072C19.761 4.877 19.756 4.68 19.747 4.485C20.6308 3.84145 21.3931 3.04571 21.998 2.135L22 2.13V2.131Z" fill="#707F8D"/>
</svg>
