<svg width="22" height="14" viewBox="0 0 22 14" fill="none" xmlns="http://www.w3.org/2000/svg">
<path d="M11.982 14C4.466 14 0.18 8.745 0 0H3.765C3.889 6.418 6.665 9.137 8.863 9.698V0H12.409V5.536C14.579 5.297 16.861 2.775 17.63 0H21.176C20.8874 1.43539 20.3097 2.79702 19.478 4.002C18.6521 5.19903 17.5879 6.21255 16.352 6.979C17.7316 7.6794 18.9462 8.66561 19.915 9.872C20.8908 11.0872 21.6011 12.4934 22 14H18.097C17.7403 12.6931 17.0089 11.5192 15.993 10.623C14.9872 9.73579 13.7391 9.16954 12.409 8.997V14H11.982V14Z" fill="#707F8D"/>
</svg>
