<svg width="28" height="28" viewBox="0 0 26 26" fill="none" xmlns="http://www.w3.org/2000/svg">
<g filter="url(#filter0_d_309_37)">
<rect x="5.66675" y="17.6667" width="3.33333" height="3.33333" fill="#2BB140"/>
<circle cx="13.3334" cy="12.6667" r="9" fill="#2BB140"/>
<path d="M17.799 14.4923C17.7601 14.4736 16.302 13.7556 16.0429 13.6623C15.9372 13.6244 15.8239 13.5873 15.7033 13.5873C15.5065 13.5873 15.3411 13.6854 15.2122 13.8781C15.0666 14.0946 14.6257 14.61 14.4894 14.764C14.4716 14.7843 14.4474 14.8086 14.4328 14.8086C14.4198 14.8086 14.1941 14.7157 14.1258 14.686C12.5617 14.0066 11.3745 12.3727 11.2117 12.0972C11.1885 12.0576 11.1875 12.0396 11.1873 12.0396C11.193 12.0186 11.2456 11.9659 11.2728 11.9387C11.3522 11.8601 11.4382 11.7566 11.5215 11.6564C11.5609 11.6089 11.6003 11.5614 11.6391 11.5166C11.7599 11.376 11.8137 11.267 11.876 11.1406L11.9087 11.0749C12.0609 10.7725 11.9309 10.5173 11.8889 10.4349C11.8544 10.366 11.2387 8.88013 11.1733 8.72403C11.0159 8.34734 10.8079 8.17195 10.5189 8.17195C10.492 8.17195 10.5189 8.17195 10.4064 8.17669C10.2694 8.18247 9.52366 8.28065 9.19392 8.48851C8.84424 8.70896 8.25269 9.41169 8.25269 10.6475C8.25269 11.7598 8.95853 12.81 9.26158 13.2094C9.26911 13.2195 9.28295 13.2399 9.30301 13.2693C10.4636 14.9642 11.9104 16.2203 13.3771 16.8062C14.7891 17.3703 15.4577 17.4355 15.8379 17.4355C15.8379 17.4355 15.8379 17.4355 15.8379 17.4355C15.9977 17.4355 16.1255 17.4229 16.2383 17.4118L16.3099 17.405C16.7977 17.3618 17.8696 16.8063 18.1135 16.1287C18.3055 15.595 18.3562 15.0119 18.2284 14.8003C18.1409 14.6564 17.99 14.584 17.799 14.4923Z" fill="white"/>
<path d="M13.1778 3C7.76114 3 3.35438 7.37364 3.35438 12.7495C3.35438 14.4883 3.81971 16.1903 4.7012 17.6799L3.014 22.6569C2.98257 22.7497 3.00594 22.8523 3.07458 22.9221C3.12413 22.9727 3.19133 23 3.25997 23C3.28627 23 3.31276 22.996 3.33861 22.9878L8.52822 21.3387C9.94835 22.0975 11.5534 22.498 13.1778 22.498C18.5939 22.4981 23.0002 18.1249 23.0002 12.7495C23.0002 7.37364 18.5939 3 13.1778 3ZM13.1778 20.4671C11.6493 20.4671 10.1688 20.0258 8.8962 19.1907C8.85341 19.1626 8.80373 19.1482 8.75373 19.1482C8.72731 19.1482 8.70081 19.1522 8.67503 19.1604L6.07536 19.9868L6.91458 17.5108C6.94172 17.4307 6.92815 17.3423 6.87815 17.274C5.90906 15.9499 5.39679 14.3854 5.39679 12.7495C5.39679 8.49351 8.88731 5.03091 13.1777 5.03091C17.4676 5.03091 20.9577 8.49351 20.9577 12.7495C20.9578 17.0051 17.4677 20.4671 13.1778 20.4671Z" fill="white"/>
</g>
<defs>
<filter id="filter0_d_309_37" x="0.000244141" y="0" width="26" height="26" filterUnits="userSpaceOnUse" color-interpolation-filters="sRGB">
<feFlood flood-opacity="0" result="BackgroundImageFix"/>
<feColorMatrix in="SourceAlpha" type="matrix" values="0 0 0 0 0 0 0 0 0 0 0 0 0 0 0 0 0 0 127 0" result="hardAlpha"/>
<feOffset/>
<feGaussianBlur stdDeviation="1.5"/>
<feComposite in2="hardAlpha" operator="out"/>
<feColorMatrix type="matrix" values="0 0 0 0 0 0 0 0 0 0 0 0 0 0 0 0 0 0 0.2 0"/>
<feBlend mode="normal" in2="BackgroundImageFix" result="effect1_dropShadow_309_37"/>
<feBlend mode="normal" in="SourceGraphic" in2="effect1_dropShadow_309_37" result="shape"/>
</filter>
</defs>
</svg>
