<svg id="Layer_1" data-name="Layer 1" xmlns="http://www.w3.org/2000/svg" viewBox="0 0 146.72 26.08"><defs><style>.cls-1{fill:#f79f1e;}</style></defs><g id="WULUXE"><g id="w"><path class="cls-1" d="M918.71,546.23a7.94,7.94,0,1,1-15.88,0V534.8h5.46v11.43a2.48,2.48,0,0,0,5,0V534.8h5.46Z" transform="translate(-886.54 -529.38)"/><path class="cls-1" d="M902.44,546.23a7.95,7.95,0,0,1-15.89,0V534.8H892v11.43a2.48,2.48,0,0,0,5,0V534.8h5.46Z" transform="translate(-886.54 -529.38)"/><rect class="cls-1" width="5.48" height="5.48"/><rect class="cls-1" x="26.71" width="5.48" height="5.48"/></g><path d="M940.11,546.57a8.89,8.89,0,1,1-17.77,0V533.79h6.11v12.78a2.82,2.82,0,0,0,2.77,2.78,2.84,2.84,0,0,0,2.78-2.78V533.79h6.11Z" transform="translate(-886.54 -529.38)"/><path d="M960.47,555.46H946.6V533.79h6.11v15.56h7.76Z" transform="translate(-886.54 -529.38)"/><path d="M984.73,546.57a8.88,8.88,0,1,1-17.76,0V533.79h6.1v12.78a2.78,2.78,0,0,0,5.55,0V533.79h6.11Z" transform="translate(-886.54 -529.38)"/><path d="M1012.89,555.46h-4.33l-6.5-6.5-6.5,6.5h-4.33v-4.31l6.51-6.51-6.51-6.51v-4.34h4.31l6.52,6.53,6.52-6.53h4.31v4.34l-6.51,6.51,6.51,6.51Z" transform="translate(-886.54 -529.38)"/><path d="M1033.25,555.46h-13.86V533.79h13.86v6.11h-7.75v1.69h7.75v6.11h-7.75v1.65h7.75Z" transform="translate(-886.54 -529.38)"/></g></svg>