<svg width="19" height="17" viewBox="0 0 19 17" fill="none" xmlns="http://www.w3.org/2000/svg">
<path d="M16.0291 0.871569C15.1843 1.7208 14.4019 2.50915 8.13213 8.8264C4.51103 12.4757 4.45907 12.5292 4.45313 12.544C4.44868 12.5559 6.51682 14.6121 6.54057 14.621C6.55542 14.6255 6.84344 14.336 15.2585 5.85707C16.9035 4.1987 18.4179 2.67247 18.6243 2.46461L18.9999 2.08602L18.6762 1.76682C18.4995 1.59163 18.0259 1.12248 17.6266 0.724587L16.8991 7.05719e-05L16.0291 0.871569Z" fill="#F0BC5E"/>
<path d="M0.360101 0.657583C0.263598 0.920368 0.161156 1.20691 0.164126 1.20988C0.167095 1.21136 0.242813 1.22769 0.331893 1.24551C0.940605 1.37022 1.70372 1.7399 2.33619 2.21796C2.71329 2.50154 3.1973 2.95881 3.42742 3.25129C3.62042 3.49478 3.80452 3.78429 3.94557 4.06786C4.19796 4.5771 4.339 5.04031 4.42363 5.64902C4.46074 5.90736 4.47708 6.53388 4.45332 6.73877C4.44441 6.81597 4.43996 6.88129 4.44144 6.88426C4.44441 6.88575 4.581 6.76252 4.7458 6.6096L5.0457 6.33197L5.03828 6.12412C5.0071 5.3224 4.77995 4.44199 4.42066 3.7249C3.87727 2.63961 3.08446 1.86461 1.87594 1.23809C1.48845 1.03766 0.979206 0.826835 0.628826 0.719939C0.556077 0.697669 0.466997 0.670945 0.431365 0.660552C0.382371 0.645706 0.36604 0.644221 0.360101 0.657583Z" fill="#F0BC5E"/>
<path d="M0.940161 2.75558C0.870382 2.89959 0.813965 3.02282 0.813965 3.03024C0.813965 3.03618 0.868897 3.0733 0.935707 3.11041C1.33211 3.33905 1.78048 3.68349 2.10711 4.00864C2.45006 4.35011 2.66683 4.6411 2.84647 5.00336C3.07065 5.45618 3.15676 5.88525 3.11668 6.35737C3.03948 7.27638 2.78857 7.93409 2.21994 8.69869C1.69734 9.40391 1.53848 9.68896 1.45831 10.072C1.42565 10.2309 1.40932 10.5382 1.42565 10.7327C1.48652 11.5062 1.92152 12.2292 2.65198 12.7726C2.81826 12.8973 2.97564 12.9953 2.99494 12.9879C3.00236 12.9849 3.11371 12.8929 3.24436 12.783L3.48191 12.5826L3.31711 12.4965C3.0083 12.3376 2.67573 12.057 2.4753 11.7883C2.2526 11.4913 2.10265 11.1306 2.04475 10.7564C2.01803 10.5827 2.02248 10.2309 2.05217 10.0958C2.13532 9.71865 2.26003 9.4722 2.69949 8.81153C3.07956 8.24141 3.21021 8.02168 3.34086 7.72772C3.65561 7.02399 3.72688 6.27869 3.55911 5.45024C3.32156 4.27884 2.48718 3.23958 1.24452 2.57148C1.05745 2.47052 1.08417 2.45419 0.940161 2.75558Z" fill="#F0BC5E"/>
<path d="M0.474358 3.86472C0.39567 3.99834 0.217511 4.32348 0.221965 4.32645C0.223449 4.32942 0.291744 4.3606 0.371916 4.39474C0.888579 4.61893 1.28944 5.0287 1.47502 5.51864C1.61458 5.88683 1.63833 6.39904 1.53292 6.80584C1.45424 7.11465 1.30577 7.39377 0.982113 7.84065C0.475842 8.53993 0.281351 8.91258 0.143277 9.45597C-0.0259743 10.1166 -0.0452749 10.761 0.0853755 11.3623C0.201179 11.8923 0.474358 12.4624 0.842554 12.9464C1.12909 13.322 1.58043 13.7645 1.92042 14.0005L1.98129 14.0436L2.17875 13.8283C2.28713 13.7095 2.36879 13.6071 2.36285 13.6011C2.35543 13.5937 2.29901 13.5551 2.23814 13.515C1.43197 12.9761 0.852947 12.1566 0.671818 11.2984C0.523351 10.5977 0.631732 9.66679 0.937573 9.0076C1.0608 8.74184 1.18254 8.54735 1.49878 8.1168C1.90409 7.56747 2.05256 7.26906 2.14609 6.82959C2.23962 6.39162 2.22626 5.89723 2.11343 5.50082C1.95308 4.94259 1.57746 4.45562 1.02814 4.09336C0.903426 4.0117 0.68518 3.89441 0.557499 3.84097L0.502566 3.81721L0.474358 3.86472Z" fill="#F0BC5E"/>
<path d="M3.70331 13.2254L3.47021 13.4585L3.92601 13.9113C4.1784 14.1607 4.65052 14.6299 4.97715 14.9535L5.57101 15.5444L5.80411 15.3113L6.0372 15.0768L4.98606 14.0345L3.93491 12.9923L3.70331 13.2254Z" fill="#F0BC5E"/>
<path d="M2.74815 14.2364L2.521 14.4695L3.57214 15.5103L4.62477 16.551L4.85637 16.3194L5.08798 16.0863L4.03535 15.0426C3.45782 14.4695 2.98124 14.0019 2.97827 14.0019C2.97679 14.0033 2.87138 14.1088 2.74815 14.2364Z" fill="#F0BC5E"/>
</svg>
