<svg width="19" height="22" viewBox="0 0 19 22" fill="none" xmlns="http://www.w3.org/2000/svg">
<path d="M7.00085 2V8H4.88485C2.81774 8 1.42378 10.114 2.23801 12.0141L5.66027 20H12.3415L15.7656 12.0113C16.579 10.1122 15.1861 8 13.1209 8H11.0009V0H15.0009C15.5531 0 16.0009 0.447715 16.0009 1C16.0009 1.55228 15.5531 2 15.0009 2H13.0009V6H13.1209C16.6218 6 18.9826 9.58002 17.604 12.799L13.6602 22H4.34143L0.399687 12.8019C-0.980064 9.58204 1.38193 6 4.88485 6H5.00085V2H3.00085C2.44857 2 2.00085 1.55228 2.00085 1C2.00085 0.447715 2.44857 0 3.00085 0H8.00085C8.55313 0 9.00085 0.447715 9.00085 1C9.00085 1.55228 8.55313 2 8.00085 2H7.00085ZM6.04385 10H7.00085C7.55313 10 8.00085 10.4477 8.00085 11C8.00085 11.5523 7.55313 12 7.00085 12H6.69316L7.90552 14.5739C8.14086 15.0735 7.9266 15.6693 7.42697 15.9047C6.92734 16.14 6.33152 15.9258 6.09618 15.4261L4.65003 12.3559C4.06866 11.3039 4.82799 10 6.04385 10Z" fill="#F0BC5E"/>
</svg>
