<svg width="23" height="22" viewBox="0 0 23 22" fill="none" xmlns="http://www.w3.org/2000/svg">
<path d="M7.44435 11.3334H8.27153C8.27241 10.9051 8.38658 10.4972 8.58546 10.2128C8.9138 9.68636 9.09849 8.9702 9.09849 8.22342C9.09849 7.47664 8.9138 6.76086 8.58546 6.23436C8.38571 5.95036 8.2711 5.54177 8.2711 5.11243C8.2711 4.6831 8.38571 4.27415 8.58546 3.99015C8.91533 3.46508 9.10045 2.74786 9.09849 2.00037H8.27153C8.27065 2.42936 8.15626 2.8376 7.95716 3.12229C7.62904 3.64912 7.44435 4.3653 7.44435 5.11207C7.44435 5.85851 7.62904 6.57464 7.95716 7.1015C8.15691 7.3855 8.27131 7.79409 8.27131 8.22306C8.27131 8.65241 8.15691 9.06099 7.95716 9.34498C7.6273 9.86935 7.44239 10.5862 7.44435 11.3333L7.44435 11.3334Z" fill="#F0BC5E"/>
<path d="M9.92579 9.33305H10.753C10.7539 8.90476 10.868 8.49688 11.0669 8.21248C11.3952 7.68599 11.5799 6.96983 11.5799 6.22305C11.5799 5.47627 11.3952 4.76049 11.0669 4.23399C10.8672 3.94999 10.7525 3.5414 10.7525 3.11207C10.7525 2.68273 10.8672 2.27378 11.0669 1.98978C11.3968 1.46472 11.5819 0.747498 11.5799 0H10.753C10.7521 0.428994 10.6377 0.83723 10.4386 1.12192C10.1105 1.64876 9.9258 2.36493 9.9258 3.11171C9.9258 3.85849 10.1105 4.57427 10.4386 5.10113C10.6384 5.38513 10.7528 5.79372 10.7528 6.22269C10.7528 6.65204 10.6384 7.06063 10.4386 7.34462C10.1087 7.86898 9.92384 8.58582 9.9258 9.33296L9.92579 9.33305Z" fill="#F0BC5E"/>
<path d="M12.8208 11.3334H13.648C13.6489 10.9051 13.7631 10.4972 13.9619 10.2128C14.2905 9.68636 14.4752 8.9702 14.4752 8.22342C14.4752 7.47664 14.2905 6.76086 13.9619 6.23436C13.7622 5.95036 13.6478 5.54177 13.6478 5.11243C13.6478 4.6831 13.7622 4.27415 13.9619 3.99015C14.292 3.46508 14.4769 2.74786 14.4752 2.00037H13.648C13.6471 2.42936 13.5327 2.8376 13.3336 3.12229C13.0055 3.64912 12.821 4.3653 12.821 5.11207C12.821 5.85851 13.0055 6.57464 13.3336 7.1015C13.5334 7.3855 13.6478 7.79409 13.6478 8.22306C13.6478 8.65241 13.5334 9.06099 13.3336 9.34498C13.0038 9.86935 12.8189 10.5862 12.8208 11.3333V11.3334Z" fill="#F0BC5E"/>
<path d="M8.68332 18.6665C8.31678 18.6658 7.96048 18.469 7.67081 18.1073C7.3809 17.7451 7.17372 17.2387 7.08159 16.6665H3.7207V19.3331H5.37485V20.6665H3.7207V22H19.4356V20.6665H16.1272V19.3331H19.4356V16.6665H10.2852C10.1931 17.2387 9.98591 17.7452 9.696 18.1073C9.4063 18.469 9.05 18.6658 8.68349 18.6665H8.68332ZM7.02917 20.6664H6.20198V19.333H7.02917V20.6664Z" fill="#F0BC5E"/>
<path d="M13.0073 15.3336H16.0495L20.9206 12.2796L20.4554 10.7798L13.0073 15.3336Z" fill="#F0BC5E"/>
<path d="M0 13.9998H1.65415V15.3332H0V13.9998Z" fill="#F0BC5E"/>
<path d="M22.5434 9.50342L21.2349 10.3044L21.6972 11.7941L23.0003 10.9776L22.5434 9.50342Z" fill="#F0BC5E"/>
<path d="M2.48145 13.9998H7.03055V15.3332H2.48145V13.9998Z" fill="#F0BC5E"/>
</svg>
