<svg width="20" height="22" viewBox="0 0 20 22" fill="none" xmlns="http://www.w3.org/2000/svg">
<path d="M16.5154 3.33334C15.0115 3.33334 13.7881 4.67912 13.7881 6.33332V10.3333C13.7881 10.8847 13.3803 11.3333 12.879 11.3333H11.5105C11.6114 11.0203 11.6669 10.6839 11.6669 10.3333C11.6669 9.56551 11.403 8.86452 10.9702 8.33334C11.4031 7.80217 11.6669 7.10113 11.6669 6.33337C11.6669 5.98283 11.6114 5.64638 11.5105 5.33336H11.6669C12.169 5.33336 12.576 4.88562 12.576 4.33335C12.576 3.78107 12.169 3.33334 11.6669 3.33334H11.1914L11.9048 1.37143C12.0169 1.06335 11.9827 0.714225 11.8136 0.439355C11.6445 0.164613 11.3625 0 11.0609 0H6.8184C6.51672 0 6.23469 0.164613 6.06563 0.439312C5.89648 0.714096 5.86234 1.06326 5.97434 1.37139L6.68777 3.33329H6.21234C5.71027 3.33329 5.30324 3.78103 5.30324 4.3333C5.30324 4.88558 5.71027 5.33331 6.21234 5.33331H6.36871C6.26781 5.6463 6.21234 5.98279 6.21234 6.33332C6.21234 7.10113 6.47617 7.80212 6.90902 8.3333C6.47617 8.86448 6.21234 9.56551 6.21234 10.3333C6.21234 10.6838 6.26781 11.0203 6.36871 11.3333H5.00023C4.49816 11.3333 4.09113 11.781 4.09113 12.3333C4.09113 12.8856 4.49816 13.3333 5.00023 13.3333H5.15879C4.49156 14.2472 4.09117 15.4061 4.09117 16.6666C4.09117 17.9272 4.4916 19.0862 5.15879 20H1.66691C1.16484 20 0.757812 20.4477 0.757812 21C0.757812 21.5523 1.16484 22 1.66691 22H8.93965H16.2123C16.7144 22 17.1214 21.5523 17.1214 21C17.1214 20.4477 16.7144 20 16.2123 20H12.7205C13.3877 19.0862 13.7881 17.9272 13.7881 16.6666C13.7881 15.4061 13.3877 14.2472 12.7205 13.3333H12.879C14.3829 13.3333 15.6063 11.9875 15.6063 10.3333V6.33332C15.6063 5.78191 16.0141 5.33331 16.5154 5.33331C17.0167 5.33331 17.4245 5.78191 17.4245 6.33332V16.6666C17.4245 17.2189 17.8315 17.6667 18.3336 17.6667C18.8357 17.6667 19.2427 17.2189 19.2427 16.6666V6.33332C19.2427 4.67912 18.0192 3.33334 16.5154 3.33334Z" fill="#F0BC5E"/>
</svg>
