<svg width="28" height="27" viewBox="0 0 28 27" fill="none" xmlns="http://www.w3.org/2000/svg">
<path d="M5.8335 3.7575L9.66509 1.125H19.7073" stroke="#F0BC5E" stroke-width="1.2" stroke-miterlimit="10" stroke-linecap="round"/>
<path d="M15.9783 7.425C16.7696 7.3957 17.5472 7.21215 18.2659 6.885V4.28625C18.1607 3.84205 17.9122 3.44323 17.5577 3.14926C17.2032 2.85528 16.7615 2.68191 16.2987 2.655C16.2987 2.71125 17.8885 1.125 17.8885 1.125H12.7644L14.0225 2.655C14.0225 2.655 11.9752 2.9925 11.9409 4.5225V6.885C12.7599 7.13088 13.6035 7.28929 14.4572 7.3575" stroke="#F0BC5E" stroke-width="1.2" stroke-linecap="round" stroke-linejoin="round"/>
<path d="M16.1229 25.874H13.0622C12.1911 25.8894 11.327 25.7223 10.5311 25.3847C9.73518 25.0471 9.02674 24.5472 8.45585 23.9201C7.88495 23.2931 7.4655 22.5543 7.22712 21.7559C6.98874 20.9576 6.93723 20.119 7.07626 19.2996L7.92332 13.5H21.1376L22.075 19.2243C22.2284 20.0468 22.189 20.8916 21.9592 21.6978C21.7295 22.504 21.3152 23.2518 20.7462 23.8876C20.1773 24.5232 19.4677 25.031 18.6683 25.3745C17.8689 25.7179 16.9996 25.8885 16.1229 25.874Z" stroke="#F0BC5E" stroke-width="1.2" stroke-miterlimit="10"/>
<path d="M8.16643 13.5C7.58309 11.8125 8.8628 11.6446 9.19441 10.8529C9.42714 10.1136 9.89187 9.48314 10.5098 9.06842C11.0404 8.84388 12.0021 9.23386 12.5436 9.35203C13.0476 9.45877 13.5569 9.53374 14.0691 9.57657H14.5112C15.054 9.58495 15.5966 9.55732 16.1362 9.49385C17.9489 9.26931 18.9217 9.08023 19.2201 9.41113C19.6415 10.0776 19.82 10.0985 20.0815 10.8529C20.3357 11.5146 21.5831 11.8125 20.9998 13.5" stroke="#F0BC5E" stroke-width="1.2" stroke-miterlimit="10" stroke-linecap="round"/>
<path d="M15.0558 23.9297C15.9681 23.622 16.4489 22.6594 16.1298 21.7796C15.8108 20.9 14.8124 20.4363 13.9001 20.7441C12.9879 21.0517 12.507 22.0144 12.8262 22.894C13.1453 23.7738 14.1436 24.2374 15.0558 23.9297Z" stroke="#F0BC5E" stroke-width="1.2" stroke-miterlimit="10"/>
<path d="M17.7544 19.444C18.3626 19.2388 18.6832 18.5971 18.4704 18.0107C18.2577 17.4242 17.5921 17.1151 16.9839 17.3203C16.3757 17.5253 16.0551 18.1672 16.2679 18.7536C16.4807 19.3401 17.1462 19.6491 17.7544 19.444Z" stroke="#F0BC5E" stroke-width="1.2" stroke-miterlimit="10"/>
<path d="M13.1296 18.6203C14.0419 18.3126 14.5227 17.3499 14.2036 16.4703C13.8845 15.5905 12.8862 15.1268 11.9739 15.4346C11.0616 15.7423 10.5808 16.705 10.8999 17.5846C11.219 18.4643 12.2173 18.9281 13.1296 18.6203Z" stroke="#F0BC5E" stroke-width="1.2" stroke-miterlimit="10"/>
</svg>
