<svg width="19" height="21" viewBox="0 0 19 21" fill="none" xmlns="http://www.w3.org/2000/svg">
<g clip-path="url(#clip0_27_1066)">
<path d="M7.58 1H4.57C2.59834 1 1 2.59834 1 4.57V16.28C1 18.2517 2.59834 19.85 4.57 19.85H7.58C9.55166 19.85 11.15 18.2517 11.15 16.28V4.57C11.15 2.59834 9.55166 1 7.58 1Z" stroke="#F0BC5E" stroke-width="2" stroke-miterlimit="10" stroke-linecap="round"/>
<path d="M1 5.16002C1.01559 5.35181 1.07056 5.53833 1.16146 5.70793C1.25237 5.87754 1.37726 6.02658 1.52834 6.14575C1.67942 6.26493 1.85344 6.35168 2.03955 6.40059C2.22566 6.4495 2.41985 6.45952 2.61 6.43002C4.15 6.36002 7.61 6.43002 7.61 6.43002M14.68 12.84V6.01002C14.68 5.61485 14.837 5.23586 15.1164 4.95643C15.3958 4.677 15.7748 4.52002 16.17 4.52002C16.5555 4.53044 16.9218 4.69096 17.1908 4.96739C17.4597 5.24383 17.6101 5.61433 17.61 6.00002V18.05C17.61 18.4425 17.4541 18.819 17.1765 19.0965C16.899 19.3741 16.5225 19.53 16.13 19.53C15.7366 19.53 15.3591 19.3744 15.0799 19.0972C14.8008 18.8199 14.6426 18.4435 14.64 18.05V15.8" stroke="#F0BC5E" stroke-width="2" stroke-miterlimit="10" stroke-linecap="round"/>
<path d="M16.9202 4.69995V1.31995L15.4602 1.32995V4.69995M14.7402 11.9399H15.3502M17.0402 12.0199H17.6402" stroke="#F0BC5E" stroke-width="2" stroke-miterlimit="10"/>
</g>
<defs>
<clipPath id="clip0_27_1066">
<rect width="18.65" height="20.86" fill="white"/>
</clipPath>
</defs>
</svg>
